<svg xmlns="http://www.w3.org/2000/svg" version="1.1" xmlns:xlink="http://www.w3.org/1999/xlink" xmlns:svgjs="http://svgjs.dev/svgjs" width="1440" height="560" preserveAspectRatio="none" viewBox="0 0 1440 560"><g mask="url(&quot;#SvgjsMask1010&quot;)" fill="none"><path d="M-46.6 376.65L-46.6 376.65" stroke="rgba(101, 101, 101, 1)" stroke-width="1.5"></path><path d="M-46.6 376.65L65.03 380.46" stroke="rgba(101, 101, 101, 1)" stroke-width="1.5"></path><path d="M-46.6 376.65L-79.19 491.39" stroke="rgba(101, 101, 101, 1)" stroke-width="1.5"></path><path d="M-46.6 376.65L60.56 551.03" stroke="rgba(101, 101, 101, 1)" stroke-width="1.5"></path><path d="M-46.6 376.65L220.87 343.5" stroke="rgba(101, 101, 101, 1)" stroke-width="1.5"></path><path d="M-46.6 376.65L213.5 549.97" stroke="rgba(101, 101, 101, 1)" stroke-width="1.5"></path><path d="M-79.19 491.39L-79.19 491.39" stroke="rgba(101, 101, 101, 1)" stroke-width="1.5"></path><path d="M-79.19 491.39L60.56 551.03" stroke="rgba(101, 101, 101, 1)" stroke-width="1.5"></path><path d="M-79.19 491.39L65.03 380.46" stroke="rgba(101, 101, 101, 1)" stroke-width="1.5"></path><path d="M-79.19 491.39L90.42 682.92" stroke="rgba(101, 101, 101, 1)" stroke-width="1.5"></path><path d="M-79.19 491.39L213.5 549.97" stroke="rgba(101, 101, 101, 1)" stroke-width="1.5"></path><path d="M65.03 380.46L65.03 380.46" stroke="rgba(101, 101, 101, 1)" stroke-width="1.5"></path><path d="M65.03 380.46L220.87 343.5" stroke="rgba(101, 101, 101, 1)" stroke-width="1.5"></path><path d="M65.03 380.46L60.56 551.03" stroke="rgba(101, 101, 101, 1)" stroke-width="1.5"></path><path d="M60.56 551.03L60.56 551.03" stroke="rgba(101, 101, 101, 1)" stroke-width="1.5"></path><path d="M60.56 551.03L90.42 682.92" stroke="rgba(101, 101, 101, 1)" stroke-width="1.5"></path><path d="M60.56 551.03L213.5 549.97" stroke="rgba(101, 101, 101, 1)" stroke-width="1.5"></path><path d="M90.42 682.92L90.42 682.92" stroke="rgba(101, 101, 101, 1)" stroke-width="1.5"></path><path d="M90.42 682.92L208.66 665.02" stroke="rgba(101, 101, 101, 1)" stroke-width="1.5"></path><path d="M90.42 682.92L213.5 549.97" stroke="rgba(101, 101, 101, 1)" stroke-width="1.5"></path><path d="M220.87 343.5L220.87 343.5" stroke="rgba(101, 101, 101, 1)" stroke-width="1.5"></path><path d="M220.87 343.5L381.89 365.68" stroke="rgba(101, 101, 101, 1)" stroke-width="1.5"></path><path d="M220.87 343.5L213.5 549.97" stroke="rgba(101, 101, 101, 1)" stroke-width="1.5"></path><path d="M220.87 343.5L60.56 551.03" stroke="rgba(101, 101, 101, 1)" stroke-width="1.5"></path><path d="M213.5 549.97L213.5 549.97" stroke="rgba(101, 101, 101, 1)" stroke-width="1.5"></path><path d="M213.5 549.97L208.66 665.02" stroke="rgba(101, 101, 101, 1)" stroke-width="1.5"></path><path d="M213.5 549.97L393.65 645.74" stroke="rgba(101, 101, 101, 1)" stroke-width="1.5"></path><path d="M213.5 549.97L65.03 380.46" stroke="rgba(101, 101, 101, 1)" stroke-width="1.5"></path><path d="M208.66 665.02L208.66 665.02" stroke="rgba(101, 101, 101, 1)" stroke-width="1.5"></path><path d="M381.89 365.68L381.89 365.68" stroke="rgba(101, 101, 101, 1)" stroke-width="1.5"></path><path d="M381.89 365.68L491.49 369.48" stroke="rgba(101, 101, 101, 1)" stroke-width="1.5"></path><path d="M381.89 365.68L533.03 489.95" stroke="rgba(101, 101, 101, 1)" stroke-width="1.5"></path><path d="M393.65 645.74L393.65 645.74" stroke="rgba(101, 101, 101, 1)" stroke-width="1.5"></path><path d="M393.65 645.74L520 698.98" stroke="rgba(101, 101, 101, 1)" stroke-width="1.5"></path><path d="M393.65 645.74L208.66 665.02" stroke="rgba(101, 101, 101, 1)" stroke-width="1.5"></path><path d="M491.49 369.48L491.49 369.48" stroke="rgba(101, 101, 101, 1)" stroke-width="1.5"></path><path d="M491.49 369.48L533.03 489.95" stroke="rgba(101, 101, 101, 1)" stroke-width="1.5"></path><path d="M491.49 369.48L646.43 260.25" stroke="rgba(101, 101, 101, 1)" stroke-width="1.5"></path><path d="M491.49 369.48L681.46 345.13" stroke="rgba(101, 101, 101, 1)" stroke-width="1.5"></path><path d="M491.49 369.48L691.11 535.82" stroke="rgba(101, 101, 101, 1)" stroke-width="1.5"></path><path d="M491.49 369.48L220.87 343.5" stroke="rgba(101, 101, 101, 1)" stroke-width="1.5"></path><path d="M533.03 489.95L533.03 489.95" stroke="rgba(101, 101, 101, 1)" stroke-width="1.5"></path><path d="M533.03 489.95L691.11 535.82" stroke="rgba(101, 101, 101, 1)" stroke-width="1.5"></path><path d="M533.03 489.95L681.46 345.13" stroke="rgba(101, 101, 101, 1)" stroke-width="1.5"></path><path d="M533.03 489.95L393.65 645.74" stroke="rgba(101, 101, 101, 1)" stroke-width="1.5"></path><path d="M520 698.98L520 698.98" stroke="rgba(101, 101, 101, 1)" stroke-width="1.5"></path><path d="M520 698.98L671.36 705.25" stroke="rgba(101, 101, 101, 1)" stroke-width="1.5"></path><path d="M520 698.98L533.03 489.95" stroke="rgba(101, 101, 101, 1)" stroke-width="1.5"></path><path d="M520 698.98L691.11 535.82" stroke="rgba(101, 101, 101, 1)" stroke-width="1.5"></path><path d="M520 698.98L790.8 674" stroke="rgba(101, 101, 101, 1)" stroke-width="1.5"></path><path d="M520 698.98L208.66 665.02" stroke="rgba(101, 101, 101, 1)" stroke-width="1.5"></path><path d="M646.43 260.25L646.43 260.25" stroke="rgba(101, 101, 101, 1)" stroke-width="1.5"></path><path d="M646.43 260.25L681.46 345.13" stroke="rgba(101, 101, 101, 1)" stroke-width="1.5"></path><path d="M646.43 260.25L828.71 195.94" stroke="rgba(101, 101, 101, 1)" stroke-width="1.5"></path><path d="M681.46 345.13L681.46 345.13" stroke="rgba(101, 101, 101, 1)" stroke-width="1.5"></path><path d="M681.46 345.13L849.31 404.37" stroke="rgba(101, 101, 101, 1)" stroke-width="1.5"></path><path d="M681.46 345.13L691.11 535.82" stroke="rgba(101, 101, 101, 1)" stroke-width="1.5"></path><path d="M681.46 345.13L804.83 504.43" stroke="rgba(101, 101, 101, 1)" stroke-width="1.5"></path><path d="M691.11 535.82L691.11 535.82" stroke="rgba(101, 101, 101, 1)" stroke-width="1.5"></path><path d="M691.11 535.82L804.83 504.43" stroke="rgba(101, 101, 101, 1)" stroke-width="1.5"></path><path d="M691.11 535.82L790.8 674" stroke="rgba(101, 101, 101, 1)" stroke-width="1.5"></path><path d="M691.11 535.82L671.36 705.25" stroke="rgba(101, 101, 101, 1)" stroke-width="1.5"></path><path d="M691.11 535.82L849.31 404.37" stroke="rgba(101, 101, 101, 1)" stroke-width="1.5"></path><path d="M671.36 705.25L671.36 705.25" stroke="rgba(101, 101, 101, 1)" stroke-width="1.5"></path><path d="M671.36 705.25L790.8 674" stroke="rgba(101, 101, 101, 1)" stroke-width="1.5"></path><path d="M671.36 705.25L804.83 504.43" stroke="rgba(101, 101, 101, 1)" stroke-width="1.5"></path><path d="M671.36 705.25L533.03 489.95" stroke="rgba(101, 101, 101, 1)" stroke-width="1.5"></path><path d="M671.36 705.25L393.65 645.74" stroke="rgba(101, 101, 101, 1)" stroke-width="1.5"></path><path d="M828.71 195.94L828.71 195.94" stroke="rgba(101, 101, 101, 1)" stroke-width="1.5"></path><path d="M828.71 195.94L963.31 71.91" stroke="rgba(101, 101, 101, 1)" stroke-width="1.5"></path><path d="M849.31 404.37L849.31 404.37" stroke="rgba(101, 101, 101, 1)" stroke-width="1.5"></path><path d="M849.31 404.37L804.83 504.43" stroke="rgba(101, 101, 101, 1)" stroke-width="1.5"></path><path d="M849.31 404.37L977.35 380.5" stroke="rgba(101, 101, 101, 1)" stroke-width="1.5"></path><path d="M804.83 504.43L804.83 504.43" stroke="rgba(101, 101, 101, 1)" stroke-width="1.5"></path><path d="M790.8 674L790.8 674" stroke="rgba(101, 101, 101, 1)" stroke-width="1.5"></path><path d="M790.8 674L804.83 504.43" stroke="rgba(101, 101, 101, 1)" stroke-width="1.5"></path><path d="M790.8 674L1010.39 548.9" stroke="rgba(101, 101, 101, 1)" stroke-width="1.5"></path><path d="M939.2 -38.99L939.2 -38.99" stroke="rgba(101, 101, 101, 1)" stroke-width="1.5"></path><path d="M939.2 -38.99L963.31 71.91" stroke="rgba(101, 101, 101, 1)" stroke-width="1.5"></path><path d="M939.2 -38.99L1101.8 -64.68" stroke="rgba(101, 101, 101, 1)" stroke-width="1.5"></path><path d="M939.2 -38.99L1106.22 38.37" stroke="rgba(101, 101, 101, 1)" stroke-width="1.5"></path><path d="M963.31 71.91L963.31 71.91" stroke="rgba(101, 101, 101, 1)" stroke-width="1.5"></path><path d="M963.31 71.91L1106.22 38.37" stroke="rgba(101, 101, 101, 1)" stroke-width="1.5"></path><path d="M977.35 380.5L977.35 380.5" stroke="rgba(101, 101, 101, 1)" stroke-width="1.5"></path><path d="M977.35 380.5L1010.39 548.9" stroke="rgba(101, 101, 101, 1)" stroke-width="1.5"></path><path d="M977.35 380.5L1148.94 398.55" stroke="rgba(101, 101, 101, 1)" stroke-width="1.5"></path><path d="M977.35 380.5L1098.97 249.63" stroke="rgba(101, 101, 101, 1)" stroke-width="1.5"></path><path d="M977.35 380.5L804.83 504.43" stroke="rgba(101, 101, 101, 1)" stroke-width="1.5"></path><path d="M1010.39 548.9L1010.39 548.9" stroke="rgba(101, 101, 101, 1)" stroke-width="1.5"></path><path d="M1010.39 548.9L1146.63 516.74" stroke="rgba(101, 101, 101, 1)" stroke-width="1.5"></path><path d="M1010.39 548.9L1118.84 659.77" stroke="rgba(101, 101, 101, 1)" stroke-width="1.5"></path><path d="M1010.39 548.9L1148.94 398.55" stroke="rgba(101, 101, 101, 1)" stroke-width="1.5"></path><path d="M1010.39 548.9L804.83 504.43" stroke="rgba(101, 101, 101, 1)" stroke-width="1.5"></path><path d="M1101.8 -64.68L1101.8 -64.68" stroke="rgba(101, 101, 101, 1)" stroke-width="1.5"></path><path d="M1101.8 -64.68L1106.22 38.37" stroke="rgba(101, 101, 101, 1)" stroke-width="1.5"></path><path d="M1101.8 -64.68L1289.58 -37.58" stroke="rgba(101, 101, 101, 1)" stroke-width="1.5"></path><path d="M1101.8 -64.68L963.31 71.91" stroke="rgba(101, 101, 101, 1)" stroke-width="1.5"></path><path d="M1101.8 -64.68L1293.5 46.17" stroke="rgba(101, 101, 101, 1)" stroke-width="1.5"></path><path d="M1101.8 -64.68L1098.97 249.63" stroke="rgba(101, 101, 101, 1)" stroke-width="1.5"></path><path d="M1106.22 38.37L1106.22 38.37" stroke="rgba(101, 101, 101, 1)" stroke-width="1.5"></path><path d="M1106.22 38.37L1293.5 46.17" stroke="rgba(101, 101, 101, 1)" stroke-width="1.5"></path><path d="M1098.97 249.63L1098.97 249.63" stroke="rgba(101, 101, 101, 1)" stroke-width="1.5"></path><path d="M1098.97 249.63L1148.94 398.55" stroke="rgba(101, 101, 101, 1)" stroke-width="1.5"></path><path d="M1098.97 249.63L1271.42 360.36" stroke="rgba(101, 101, 101, 1)" stroke-width="1.5"></path><path d="M1148.94 398.55L1148.94 398.55" stroke="rgba(101, 101, 101, 1)" stroke-width="1.5"></path><path d="M1148.94 398.55L1146.63 516.74" stroke="rgba(101, 101, 101, 1)" stroke-width="1.5"></path><path d="M1148.94 398.55L1271.42 360.36" stroke="rgba(101, 101, 101, 1)" stroke-width="1.5"></path><path d="M1148.94 398.55L1243.7 515.47" stroke="rgba(101, 101, 101, 1)" stroke-width="1.5"></path><path d="M1146.63 516.74L1146.63 516.74" stroke="rgba(101, 101, 101, 1)" stroke-width="1.5"></path><path d="M1146.63 516.74L1243.7 515.47" stroke="rgba(101, 101, 101, 1)" stroke-width="1.5"></path><path d="M1146.63 516.74L1118.84 659.77" stroke="rgba(101, 101, 101, 1)" stroke-width="1.5"></path><path d="M1118.84 659.77L1118.84 659.77" stroke="rgba(101, 101, 101, 1)" stroke-width="1.5"></path><path d="M1118.84 659.77L1273.01 686.92" stroke="rgba(101, 101, 101, 1)" stroke-width="1.5"></path><path d="M1289.58 -37.58L1289.58 -37.58" stroke="rgba(101, 101, 101, 1)" stroke-width="1.5"></path><path d="M1289.58 -37.58L1293.5 46.17" stroke="rgba(101, 101, 101, 1)" stroke-width="1.5"></path><path d="M1289.58 -37.58L1432.98 -39.11" stroke="rgba(101, 101, 101, 1)" stroke-width="1.5"></path><path d="M1289.58 -37.58L1106.22 38.37" stroke="rgba(101, 101, 101, 1)" stroke-width="1.5"></path><path d="M1289.58 -37.58L1307.9 200.71" stroke="rgba(101, 101, 101, 1)" stroke-width="1.5"></path><path d="M1289.58 -37.58L1545.62 87.81" stroke="rgba(101, 101, 101, 1)" stroke-width="1.5"></path><path d="M1293.5 46.17L1293.5 46.17" stroke="rgba(101, 101, 101, 1)" stroke-width="1.5"></path><path d="M1293.5 46.17L1307.9 200.71" stroke="rgba(101, 101, 101, 1)" stroke-width="1.5"></path><path d="M1293.5 46.17L1432.98 -39.11" stroke="rgba(101, 101, 101, 1)" stroke-width="1.5"></path><path d="M1293.5 46.17L1454.26 207.54" stroke="rgba(101, 101, 101, 1)" stroke-width="1.5"></path><path d="M1307.9 200.71L1307.9 200.71" stroke="rgba(101, 101, 101, 1)" stroke-width="1.5"></path><path d="M1307.9 200.71L1454.26 207.54" stroke="rgba(101, 101, 101, 1)" stroke-width="1.5"></path><path d="M1271.42 360.36L1271.42 360.36" stroke="rgba(101, 101, 101, 1)" stroke-width="1.5"></path><path d="M1271.42 360.36L1416.32 346.3" stroke="rgba(101, 101, 101, 1)" stroke-width="1.5"></path><path d="M1271.42 360.36L1243.7 515.47" stroke="rgba(101, 101, 101, 1)" stroke-width="1.5"></path><path d="M1271.42 360.36L1307.9 200.71" stroke="rgba(101, 101, 101, 1)" stroke-width="1.5"></path><path d="M1271.42 360.36L1146.63 516.74" stroke="rgba(101, 101, 101, 1)" stroke-width="1.5"></path><path d="M1243.7 515.47L1243.7 515.47" stroke="rgba(101, 101, 101, 1)" stroke-width="1.5"></path><path d="M1273.01 686.92L1273.01 686.92" stroke="rgba(101, 101, 101, 1)" stroke-width="1.5"></path><path d="M1273.01 686.92L1405.06 675.27" stroke="rgba(101, 101, 101, 1)" stroke-width="1.5"></path><path d="M1432.98 -39.11L1432.98 -39.11" stroke="rgba(101, 101, 101, 1)" stroke-width="1.5"></path><path d="M1432.98 -39.11L1578.53 -71.69" stroke="rgba(101, 101, 101, 1)" stroke-width="1.5"></path><path d="M1454.26 207.54L1454.26 207.54" stroke="rgba(101, 101, 101, 1)" stroke-width="1.5"></path><path d="M1454.26 207.54L1416.32 346.3" stroke="rgba(101, 101, 101, 1)" stroke-width="1.5"></path><path d="M1416.32 346.3L1416.32 346.3" stroke="rgba(101, 101, 101, 1)" stroke-width="1.5"></path><path d="M1416.32 346.3L1553.5 346.5" stroke="rgba(101, 101, 101, 1)" stroke-width="1.5"></path><path d="M1430.01 492.23L1430.01 492.23" stroke="rgba(101, 101, 101, 1)" stroke-width="1.5"></path><path d="M1430.01 492.23L1416.32 346.3" stroke="rgba(101, 101, 101, 1)" stroke-width="1.5"></path><path d="M1430.01 492.23L1565.1 552.54" stroke="rgba(101, 101, 101, 1)" stroke-width="1.5"></path><path d="M1430.01 492.23L1405.06 675.27" stroke="rgba(101, 101, 101, 1)" stroke-width="1.5"></path><path d="M1430.01 492.23L1243.7 515.47" stroke="rgba(101, 101, 101, 1)" stroke-width="1.5"></path><path d="M1430.01 492.23L1553.5 346.5" stroke="rgba(101, 101, 101, 1)" stroke-width="1.5"></path><path d="M1405.06 675.27L1405.06 675.27" stroke="rgba(101, 101, 101, 1)" stroke-width="1.5"></path><path d="M1405.06 675.27L1554.52 694.07" stroke="rgba(101, 101, 101, 1)" stroke-width="1.5"></path><path d="M1405.06 675.27L1565.1 552.54" stroke="rgba(101, 101, 101, 1)" stroke-width="1.5"></path><path d="M1578.53 -71.69L1578.53 -71.69" stroke="rgba(101, 101, 101, 1)" stroke-width="1.5"></path><path d="M1578.53 -71.69L1545.62 87.81" stroke="rgba(101, 101, 101, 1)" stroke-width="1.5"></path><path d="M1545.62 87.81L1545.62 87.81" stroke="rgba(101, 101, 101, 1)" stroke-width="1.5"></path><path d="M1545.62 87.81L1454.26 207.54" stroke="rgba(101, 101, 101, 1)" stroke-width="1.5"></path><path d="M1545.62 87.81L1432.98 -39.11" stroke="rgba(101, 101, 101, 1)" stroke-width="1.5"></path><path d="M1545.62 87.81L1293.5 46.17" stroke="rgba(101, 101, 101, 1)" stroke-width="1.5"></path><path d="M1553.5 346.5L1553.5 346.5" stroke="rgba(101, 101, 101, 1)" stroke-width="1.5"></path><path d="M1553.5 346.5L1454.26 207.54" stroke="rgba(101, 101, 101, 1)" stroke-width="1.5"></path><path d="M1553.5 346.5L1565.1 552.54" stroke="rgba(101, 101, 101, 1)" stroke-width="1.5"></path><path d="M1553.5 346.5L1545.62 87.81" stroke="rgba(101, 101, 101, 1)" stroke-width="1.5"></path><path d="M1565.1 552.54L1565.1 552.54" stroke="rgba(101, 101, 101, 1)" stroke-width="1.5"></path><path d="M1565.1 552.54L1554.52 694.07" stroke="rgba(101, 101, 101, 1)" stroke-width="1.5"></path><path d="M1554.52 694.07L1554.52 694.07" stroke="rgba(101, 101, 101, 1)" stroke-width="1.5"></path><path d="M1554.52 694.07L1430.01 492.23" stroke="rgba(101, 101, 101, 1)" stroke-width="1.5"></path><circle r="5" cx="-46.6" cy="376.65" fill="rgba(101, 101, 101, 1)"></circle><circle r="5" cx="-79.19" cy="491.39" fill="rgba(101, 101, 101, 1)"></circle><circle r="5" cx="65.03" cy="380.46" fill="rgba(101, 101, 101, 1)"></circle><circle r="5" cx="60.56" cy="551.03" fill="rgba(101, 101, 101, 1)"></circle><circle r="5" cx="90.42" cy="682.92" fill="rgba(101, 101, 101, 1)"></circle><circle r="5" cx="220.87" cy="343.5" fill="rgba(101, 101, 101, 1)"></circle><circle r="5" cx="213.5" cy="549.97" fill="rgba(101, 101, 101, 1)"></circle><circle r="5" cx="208.66" cy="665.02" fill="rgba(101, 101, 101, 1)"></circle><circle r="5" cx="381.89" cy="365.68" fill="rgba(101, 101, 101, 1)"></circle><circle r="5" cx="393.65" cy="645.74" fill="rgba(101, 101, 101, 1)"></circle><circle r="5" cx="491.49" cy="369.48" fill="rgba(101, 101, 101, 1)"></circle><circle r="5" cx="533.03" cy="489.95" fill="rgba(101, 101, 101, 1)"></circle><circle r="5" cx="520" cy="698.98" fill="rgba(101, 101, 101, 1)"></circle><circle r="5" cx="646.43" cy="260.25" fill="rgba(101, 101, 101, 1)"></circle><circle r="5" cx="681.46" cy="345.13" fill="rgba(101, 101, 101, 1)"></circle><circle r="5" cx="691.11" cy="535.82" fill="rgba(101, 101, 101, 1)"></circle><circle r="5" cx="671.36" cy="705.25" fill="rgba(101, 101, 101, 1)"></circle><circle r="5" cx="828.71" cy="195.94" fill="rgba(101, 101, 101, 1)"></circle><circle r="5" cx="849.31" cy="404.37" fill="rgba(101, 101, 101, 1)"></circle><circle r="5" cx="804.83" cy="504.43" fill="rgba(101, 101, 101, 1)"></circle><circle r="5" cx="790.8" cy="674" fill="rgba(101, 101, 101, 1)"></circle><circle r="5" cx="939.2" cy="-38.99" fill="rgba(101, 101, 101, 1)"></circle><circle r="5" cx="963.31" cy="71.91" fill="rgba(101, 101, 101, 1)"></circle><circle r="5" cx="977.35" cy="380.5" fill="rgba(101, 101, 101, 1)"></circle><circle r="5" cx="1010.39" cy="548.9" fill="rgba(101, 101, 101, 1)"></circle><circle r="5" cx="1101.8" cy="-64.68" fill="rgba(101, 101, 101, 1)"></circle><circle r="5" cx="1106.22" cy="38.37" fill="rgba(101, 101, 101, 1)"></circle><circle r="5" cx="1098.97" cy="249.63" fill="rgba(101, 101, 101, 1)"></circle><circle r="5" cx="1148.94" cy="398.55" fill="rgba(101, 101, 101, 1)"></circle><circle r="5" cx="1146.63" cy="516.74" fill="rgba(101, 101, 101, 1)"></circle><circle r="5" cx="1118.84" cy="659.77" fill="rgba(101, 101, 101, 1)"></circle><circle r="5" cx="1289.58" cy="-37.58" fill="rgba(101, 101, 101, 1)"></circle><circle r="5" cx="1293.5" cy="46.17" fill="rgba(101, 101, 101, 1)"></circle><circle r="5" cx="1307.9" cy="200.71" fill="rgba(101, 101, 101, 1)"></circle><circle r="5" cx="1271.42" cy="360.36" fill="rgba(101, 101, 101, 1)"></circle><circle r="5" cx="1243.7" cy="515.47" fill="rgba(101, 101, 101, 1)"></circle><circle r="5" cx="1273.01" cy="686.92" fill="rgba(101, 101, 101, 1)"></circle><circle r="5" cx="1432.98" cy="-39.11" fill="rgba(101, 101, 101, 1)"></circle><circle r="5" cx="1454.26" cy="207.54" fill="rgba(101, 101, 101, 1)"></circle><circle r="5" cx="1416.32" cy="346.3" fill="rgba(101, 101, 101, 1)"></circle><circle r="5" cx="1430.01" cy="492.23" fill="rgba(101, 101, 101, 1)"></circle><circle r="5" cx="1405.06" cy="675.27" fill="rgba(101, 101, 101, 1)"></circle><circle r="5" cx="1578.53" cy="-71.69" fill="rgba(101, 101, 101, 1)"></circle><circle r="5" cx="1545.62" cy="87.81" fill="rgba(101, 101, 101, 1)"></circle><circle r="5" cx="1553.5" cy="346.5" fill="rgba(101, 101, 101, 1)"></circle><circle r="5" cx="1565.1" cy="552.54" fill="rgba(101, 101, 101, 1)"></circle><circle r="5" cx="1554.52" cy="694.07" fill="rgba(101, 101, 101, 1)"></circle><path d="M662.18 369.86L662.18 369.86" stroke="hsl(0, 0%, 57.6%)" stroke-width="1.5"></path><path d="M662.18 369.86L804.53 373.75" stroke="hsl(0, 0%, 57.6%)" stroke-width="1.5"></path><path d="M662.18 369.86L672.76 522.95" stroke="hsl(0, 0%, 57.6%)" stroke-width="1.5"></path><path d="M662.18 369.86L498.12 534.55" stroke="hsl(0, 0%, 57.6%)" stroke-width="1.5"></path><path d="M1133.64 536.3L1133.64 536.3" stroke="hsl(0, 0%, 57.6%)" stroke-width="1.5"></path><path d="M1133.64 536.3L1131.91 656.5" stroke="hsl(0, 0%, 57.6%)" stroke-width="1.5"></path><path d="M1133.64 536.3L1256.06 542.36" stroke="hsl(0, 0%, 57.6%)" stroke-width="1.5"></path><path d="M1133.64 536.3L1145.85 376.21" stroke="hsl(0, 0%, 57.6%)" stroke-width="1.5"></path><path d="M1133.64 536.3L963.5 494.47" stroke="hsl(0, 0%, 57.6%)" stroke-width="1.5"></path><path d="M1133.64 536.3L1293.58 649.15" stroke="hsl(0, 0%, 57.6%)" stroke-width="1.5"></path><path d="M1271.55 53.05L1271.55 53.05" stroke="hsl(0, 0%, 57.6%)" stroke-width="1.5"></path><path d="M1271.55 53.05L1154.11 61.95" stroke="hsl(0, 0%, 57.6%)" stroke-width="1.5"></path><path d="M1271.55 53.05L1396.49 65.44" stroke="hsl(0, 0%, 57.6%)" stroke-width="1.5"></path><path d="M1271.55 53.05L1290.42 -73.46" stroke="hsl(0, 0%, 57.6%)" stroke-width="1.5"></path><path d="M1271.55 53.05L1310.28 211.29" stroke="hsl(0, 0%, 57.6%)" stroke-width="1.5"></path><path d="M1271.55 53.05L1398.25 207.34" stroke="hsl(0, 0%, 57.6%)" stroke-width="1.5"></path><path d="M1461.9 -50.08L1461.9 -50.08" stroke="hsl(0, 0%, 57.6%)" stroke-width="1.5"></path><path d="M1461.9 -50.08L1560.51 -71.77" stroke="hsl(0, 0%, 57.6%)" stroke-width="1.5"></path><path d="M1461.9 -50.08L1396.49 65.44" stroke="hsl(0, 0%, 57.6%)" stroke-width="1.5"></path><path d="M1461.9 -50.08L1586.81 67.08" stroke="hsl(0, 0%, 57.6%)" stroke-width="1.5"></path><path d="M1396.49 65.44L1396.49 65.44" stroke="hsl(0, 0%, 57.6%)" stroke-width="1.5"></path><path d="M-89.04 490.89L-89.04 490.89" stroke="hsl(0, 0%, 57.6%)" stroke-width="1.5"></path><path d="M-89.04 490.89L-63.73 643.97" stroke="hsl(0, 0%, 57.6%)" stroke-width="1.5"></path><path d="M-89.04 490.89L82.12 493.98" stroke="hsl(0, 0%, 57.6%)" stroke-width="1.5"></path><path d="M-89.04 490.89L84.92 668.29" stroke="hsl(0, 0%, 57.6%)" stroke-width="1.5"></path><path d="M-63.73 643.97L-63.73 643.97" stroke="hsl(0, 0%, 57.6%)" stroke-width="1.5"></path><path d="M-63.73 643.97L84.92 668.29" stroke="hsl(0, 0%, 57.6%)" stroke-width="1.5"></path><path d="M82.12 493.98L82.12 493.98" stroke="hsl(0, 0%, 57.6%)" stroke-width="1.5"></path><path d="M82.12 493.98L84.92 668.29" stroke="hsl(0, 0%, 57.6%)" stroke-width="1.5"></path><path d="M84.92 668.29L84.92 668.29" stroke="hsl(0, 0%, 57.6%)" stroke-width="1.5"></path><path d="M84.92 668.29L194.3 690.06" stroke="hsl(0, 0%, 57.6%)" stroke-width="1.5"></path><path d="M256.88 517.92L256.88 517.92" stroke="hsl(0, 0%, 57.6%)" stroke-width="1.5"></path><path d="M256.88 517.92L342.82 513" stroke="hsl(0, 0%, 57.6%)" stroke-width="1.5"></path><path d="M256.88 517.92L82.12 493.98" stroke="hsl(0, 0%, 57.6%)" stroke-width="1.5"></path><path d="M256.88 517.92L194.3 690.06" stroke="hsl(0, 0%, 57.6%)" stroke-width="1.5"></path><path d="M256.88 517.92L84.92 668.29" stroke="hsl(0, 0%, 57.6%)" stroke-width="1.5"></path><path d="M256.88 517.92L498.12 534.55" stroke="hsl(0, 0%, 57.6%)" stroke-width="1.5"></path><path d="M256.88 517.92L408.03 711.13" stroke="hsl(0, 0%, 57.6%)" stroke-width="1.5"></path><path d="M194.3 690.06L194.3 690.06" stroke="hsl(0, 0%, 57.6%)" stroke-width="1.5"></path><path d="M342.82 513L342.82 513" stroke="hsl(0, 0%, 57.6%)" stroke-width="1.5"></path><path d="M342.82 513L498.12 534.55" stroke="hsl(0, 0%, 57.6%)" stroke-width="1.5"></path><path d="M342.82 513L408.03 711.13" stroke="hsl(0, 0%, 57.6%)" stroke-width="1.5"></path><path d="M342.82 513L194.3 690.06" stroke="hsl(0, 0%, 57.6%)" stroke-width="1.5"></path><path d="M408.03 711.13L408.03 711.13" stroke="hsl(0, 0%, 57.6%)" stroke-width="1.5"></path><path d="M408.03 711.13L510.62 688.81" stroke="hsl(0, 0%, 57.6%)" stroke-width="1.5"></path><path d="M408.03 711.13L498.12 534.55" stroke="hsl(0, 0%, 57.6%)" stroke-width="1.5"></path><path d="M408.03 711.13L194.3 690.06" stroke="hsl(0, 0%, 57.6%)" stroke-width="1.5"></path><path d="M498.12 534.55L498.12 534.55" stroke="hsl(0, 0%, 57.6%)" stroke-width="1.5"></path><path d="M498.12 534.55L510.62 688.81" stroke="hsl(0, 0%, 57.6%)" stroke-width="1.5"></path><path d="M498.12 534.55L672.76 522.95" stroke="hsl(0, 0%, 57.6%)" stroke-width="1.5"></path><path d="M510.62 688.81L510.62 688.81" stroke="hsl(0, 0%, 57.6%)" stroke-width="1.5"></path><path d="M510.62 688.81L667.67 647.44" stroke="hsl(0, 0%, 57.6%)" stroke-width="1.5"></path><path d="M672.76 522.95L672.76 522.95" stroke="hsl(0, 0%, 57.6%)" stroke-width="1.5"></path><path d="M672.76 522.95L667.67 647.44" stroke="hsl(0, 0%, 57.6%)" stroke-width="1.5"></path><path d="M672.76 522.95L828 543.2" stroke="hsl(0, 0%, 57.6%)" stroke-width="1.5"></path><path d="M667.67 647.44L667.67 647.44" stroke="hsl(0, 0%, 57.6%)" stroke-width="1.5"></path><path d="M667.67 647.44L833.35 665.79" stroke="hsl(0, 0%, 57.6%)" stroke-width="1.5"></path><path d="M804.53 373.75L804.53 373.75" stroke="hsl(0, 0%, 57.6%)" stroke-width="1.5"></path><path d="M804.53 373.75L828 543.2" stroke="hsl(0, 0%, 57.6%)" stroke-width="1.5"></path><path d="M804.53 373.75L987.18 347.47" stroke="hsl(0, 0%, 57.6%)" stroke-width="1.5"></path><path d="M804.53 373.75L672.76 522.95" stroke="hsl(0, 0%, 57.6%)" stroke-width="1.5"></path><path d="M828 543.2L828 543.2" stroke="hsl(0, 0%, 57.6%)" stroke-width="1.5"></path><path d="M828 543.2L833.35 665.79" stroke="hsl(0, 0%, 57.6%)" stroke-width="1.5"></path><path d="M828 543.2L963.5 494.47" stroke="hsl(0, 0%, 57.6%)" stroke-width="1.5"></path><path d="M833.35 665.79L833.35 665.79" stroke="hsl(0, 0%, 57.6%)" stroke-width="1.5"></path><path d="M833.35 665.79L993.16 673.71" stroke="hsl(0, 0%, 57.6%)" stroke-width="1.5"></path><path d="M833.35 665.79L672.76 522.95" stroke="hsl(0, 0%, 57.6%)" stroke-width="1.5"></path><path d="M833.35 665.79L963.5 494.47" stroke="hsl(0, 0%, 57.6%)" stroke-width="1.5"></path><path d="M991.09 232.43L991.09 232.43" stroke="hsl(0, 0%, 57.6%)" stroke-width="1.5"></path><path d="M991.09 232.43L987.18 347.47" stroke="hsl(0, 0%, 57.6%)" stroke-width="1.5"></path><path d="M991.09 232.43L1120.86 218.98" stroke="hsl(0, 0%, 57.6%)" stroke-width="1.5"></path><path d="M987.18 347.47L987.18 347.47" stroke="hsl(0, 0%, 57.6%)" stroke-width="1.5"></path><path d="M987.18 347.47L963.5 494.47" stroke="hsl(0, 0%, 57.6%)" stroke-width="1.5"></path><path d="M987.18 347.47L1145.85 376.21" stroke="hsl(0, 0%, 57.6%)" stroke-width="1.5"></path><path d="M963.5 494.47L963.5 494.47" stroke="hsl(0, 0%, 57.6%)" stroke-width="1.5"></path><path d="M993.16 673.71L993.16 673.71" stroke="hsl(0, 0%, 57.6%)" stroke-width="1.5"></path><path d="M993.16 673.71L1131.91 656.5" stroke="hsl(0, 0%, 57.6%)" stroke-width="1.5"></path><path d="M993.16 673.71L963.5 494.47" stroke="hsl(0, 0%, 57.6%)" stroke-width="1.5"></path><path d="M993.16 673.71L1133.64 536.3" stroke="hsl(0, 0%, 57.6%)" stroke-width="1.5"></path><path d="M993.16 673.71L828 543.2" stroke="hsl(0, 0%, 57.6%)" stroke-width="1.5"></path><path d="M993.16 673.71L1256.06 542.36" stroke="hsl(0, 0%, 57.6%)" stroke-width="1.5"></path><path d="M1154.11 61.95L1154.11 61.95" stroke="hsl(0, 0%, 57.6%)" stroke-width="1.5"></path><path d="M1154.11 61.95L1120.86 218.98" stroke="hsl(0, 0%, 57.6%)" stroke-width="1.5"></path><path d="M1154.11 61.95L1290.42 -73.46" stroke="hsl(0, 0%, 57.6%)" stroke-width="1.5"></path><path d="M1154.11 61.95L1310.28 211.29" stroke="hsl(0, 0%, 57.6%)" stroke-width="1.5"></path><path d="M1120.86 218.98L1120.86 218.98" stroke="hsl(0, 0%, 57.6%)" stroke-width="1.5"></path><path d="M1120.86 218.98L1145.85 376.21" stroke="hsl(0, 0%, 57.6%)" stroke-width="1.5"></path><path d="M1120.86 218.98L987.18 347.47" stroke="hsl(0, 0%, 57.6%)" stroke-width="1.5"></path><path d="M1120.86 218.98L1310.28 211.29" stroke="hsl(0, 0%, 57.6%)" stroke-width="1.5"></path><path d="M1120.86 218.98L1275.87 341.2" stroke="hsl(0, 0%, 57.6%)" stroke-width="1.5"></path><path d="M1145.85 376.21L1145.85 376.21" stroke="hsl(0, 0%, 57.6%)" stroke-width="1.5"></path><path d="M1145.85 376.21L1275.87 341.2" stroke="hsl(0, 0%, 57.6%)" stroke-width="1.5"></path><path d="M1131.91 656.5L1131.91 656.5" stroke="hsl(0, 0%, 57.6%)" stroke-width="1.5"></path><path d="M1131.91 656.5L1293.58 649.15" stroke="hsl(0, 0%, 57.6%)" stroke-width="1.5"></path><path d="M1131.91 656.5L1256.06 542.36" stroke="hsl(0, 0%, 57.6%)" stroke-width="1.5"></path><path d="M1131.91 656.5L963.5 494.47" stroke="hsl(0, 0%, 57.6%)" stroke-width="1.5"></path><path d="M1290.42 -73.46L1290.42 -73.46" stroke="hsl(0, 0%, 57.6%)" stroke-width="1.5"></path><path d="M1290.42 -73.46L1461.9 -50.08" stroke="hsl(0, 0%, 57.6%)" stroke-width="1.5"></path><path d="M1290.42 -73.46L1396.49 65.44" stroke="hsl(0, 0%, 57.6%)" stroke-width="1.5"></path><path d="M1310.28 211.29L1310.28 211.29" stroke="hsl(0, 0%, 57.6%)" stroke-width="1.5"></path><path d="M1310.28 211.29L1398.25 207.34" stroke="hsl(0, 0%, 57.6%)" stroke-width="1.5"></path><path d="M1310.28 211.29L1275.87 341.2" stroke="hsl(0, 0%, 57.6%)" stroke-width="1.5"></path><path d="M1310.28 211.29L1396.49 65.44" stroke="hsl(0, 0%, 57.6%)" stroke-width="1.5"></path><path d="M1275.87 341.2L1275.87 341.2" stroke="hsl(0, 0%, 57.6%)" stroke-width="1.5"></path><path d="M1275.87 341.2L1434.82 398.62" stroke="hsl(0, 0%, 57.6%)" stroke-width="1.5"></path><path d="M1275.87 341.2L1398.25 207.34" stroke="hsl(0, 0%, 57.6%)" stroke-width="1.5"></path><path d="M1275.87 341.2L1256.06 542.36" stroke="hsl(0, 0%, 57.6%)" stroke-width="1.5"></path><path d="M1256.06 542.36L1256.06 542.36" stroke="hsl(0, 0%, 57.6%)" stroke-width="1.5"></path><path d="M1256.06 542.36L1293.58 649.15" stroke="hsl(0, 0%, 57.6%)" stroke-width="1.5"></path><path d="M1256.06 542.36L1145.85 376.21" stroke="hsl(0, 0%, 57.6%)" stroke-width="1.5"></path><path d="M1256.06 542.36L1460.83 500.31" stroke="hsl(0, 0%, 57.6%)" stroke-width="1.5"></path><path d="M1293.58 649.15L1293.58 649.15" stroke="hsl(0, 0%, 57.6%)" stroke-width="1.5"></path><path d="M1293.58 649.15L1460.83 500.31" stroke="hsl(0, 0%, 57.6%)" stroke-width="1.5"></path><path d="M1398.25 207.34L1398.25 207.34" stroke="hsl(0, 0%, 57.6%)" stroke-width="1.5"></path><path d="M1398.25 207.34L1396.49 65.44" stroke="hsl(0, 0%, 57.6%)" stroke-width="1.5"></path><path d="M1398.25 207.34L1549.21 255.89" stroke="hsl(0, 0%, 57.6%)" stroke-width="1.5"></path><path d="M1398.25 207.34L1434.82 398.62" stroke="hsl(0, 0%, 57.6%)" stroke-width="1.5"></path><path d="M1434.82 398.62L1434.82 398.62" stroke="hsl(0, 0%, 57.6%)" stroke-width="1.5"></path><path d="M1434.82 398.62L1460.83 500.31" stroke="hsl(0, 0%, 57.6%)" stroke-width="1.5"></path><path d="M1434.82 398.62L1549.21 255.89" stroke="hsl(0, 0%, 57.6%)" stroke-width="1.5"></path><path d="M1434.82 398.62L1564.49 553.16" stroke="hsl(0, 0%, 57.6%)" stroke-width="1.5"></path><path d="M1460.83 500.31L1460.83 500.31" stroke="hsl(0, 0%, 57.6%)" stroke-width="1.5"></path><path d="M1460.83 500.31L1564.49 553.16" stroke="hsl(0, 0%, 57.6%)" stroke-width="1.5"></path><path d="M1560.51 -71.77L1560.51 -71.77" stroke="hsl(0, 0%, 57.6%)" stroke-width="1.5"></path><path d="M1560.51 -71.77L1586.81 67.08" stroke="hsl(0, 0%, 57.6%)" stroke-width="1.5"></path><path d="M1560.51 -71.77L1396.49 65.44" stroke="hsl(0, 0%, 57.6%)" stroke-width="1.5"></path><path d="M1560.51 -71.77L1290.42 -73.46" stroke="hsl(0, 0%, 57.6%)" stroke-width="1.5"></path><path d="M1586.81 67.08L1586.81 67.08" stroke="hsl(0, 0%, 57.6%)" stroke-width="1.5"></path><path d="M1586.81 67.08L1396.49 65.44" stroke="hsl(0, 0%, 57.6%)" stroke-width="1.5"></path><path d="M1549.21 255.89L1549.21 255.89" stroke="hsl(0, 0%, 57.6%)" stroke-width="1.5"></path><path d="M1564.49 553.16L1564.49 553.16" stroke="hsl(0, 0%, 57.6%)" stroke-width="1.5"></path><path d="M1564.49 553.16L1604.54 682.17" stroke="hsl(0, 0%, 57.6%)" stroke-width="1.5"></path><path d="M1564.49 553.16L1293.58 649.15" stroke="hsl(0, 0%, 57.6%)" stroke-width="1.5"></path><path d="M1564.49 553.16L1549.21 255.89" stroke="hsl(0, 0%, 57.6%)" stroke-width="1.5"></path><path d="M1564.49 553.16L1256.06 542.36" stroke="hsl(0, 0%, 57.6%)" stroke-width="1.5"></path><path d="M1604.54 682.17L1604.54 682.17" stroke="hsl(0, 0%, 57.6%)" stroke-width="1.5"></path><path d="M1604.54 682.17L1460.83 500.31" stroke="hsl(0, 0%, 57.6%)" stroke-width="1.5"></path><path d="M1604.54 682.17L1293.58 649.15" stroke="hsl(0, 0%, 57.6%)" stroke-width="1.5"></path><path d="M1604.54 682.17L1434.82 398.62" stroke="hsl(0, 0%, 57.6%)" stroke-width="1.5"></path><path d="M1604.54 682.17L1256.06 542.36" stroke="hsl(0, 0%, 57.6%)" stroke-width="1.5"></path><circle r="25" cx="662.18" cy="369.86" fill="url(&quot;#SvgjsRadialGradient1011&quot;)"></circle><circle r="25" cx="1133.64" cy="536.3" fill="url(&quot;#SvgjsRadialGradient1011&quot;)"></circle><circle r="25" cx="1271.55" cy="53.05" fill="url(&quot;#SvgjsRadialGradient1011&quot;)"></circle><circle r="25" cx="1461.9" cy="-50.08" fill="url(&quot;#SvgjsRadialGradient1011&quot;)"></circle><circle r="25" cx="1396.49" cy="65.44" fill="url(&quot;#SvgjsRadialGradient1011&quot;)"></circle><circle r="5" cx="-89.04" cy="490.89" fill="#b8b8b8"></circle><circle r="5" cx="-63.73" cy="643.97" fill="#b8b8b8"></circle><circle r="5" cx="82.12" cy="493.98" fill="#b8b8b8"></circle><circle r="5" cx="84.92" cy="668.29" fill="#b8b8b8"></circle><circle r="5" cx="256.88" cy="517.92" fill="#b8b8b8"></circle><circle r="5" cx="194.3" cy="690.06" fill="#b8b8b8"></circle><circle r="5" cx="342.82" cy="513" fill="#b8b8b8"></circle><circle r="5" cx="408.03" cy="711.13" fill="#b8b8b8"></circle><circle r="5" cx="498.12" cy="534.55" fill="#b8b8b8"></circle><circle r="5" cx="510.62" cy="688.81" fill="#b8b8b8"></circle><circle r="5" cx="672.76" cy="522.95" fill="#b8b8b8"></circle><circle r="5" cx="667.67" cy="647.44" fill="#b8b8b8"></circle><circle r="5" cx="804.53" cy="373.75" fill="#b8b8b8"></circle><circle r="5" cx="828" cy="543.2" fill="#b8b8b8"></circle><circle r="5" cx="833.35" cy="665.79" fill="#b8b8b8"></circle><circle r="5" cx="991.09" cy="232.43" fill="#b8b8b8"></circle><circle r="5" cx="987.18" cy="347.47" fill="#b8b8b8"></circle><circle r="5" cx="963.5" cy="494.47" fill="#b8b8b8"></circle><circle r="5" cx="993.16" cy="673.71" fill="#b8b8b8"></circle><circle r="5" cx="1154.11" cy="61.95" fill="#b8b8b8"></circle><circle r="5" cx="1120.86" cy="218.98" fill="#b8b8b8"></circle><circle r="5" cx="1145.85" cy="376.21" fill="#b8b8b8"></circle><circle r="5" cx="1131.91" cy="656.5" fill="#b8b8b8"></circle><circle r="5" cx="1290.42" cy="-73.46" fill="#b8b8b8"></circle><circle r="5" cx="1310.28" cy="211.29" fill="#b8b8b8"></circle><circle r="5" cx="1275.87" cy="341.2" fill="#b8b8b8"></circle><circle r="5" cx="1256.06" cy="542.36" fill="#b8b8b8"></circle><circle r="5" cx="1293.58" cy="649.15" fill="#b8b8b8"></circle><circle r="5" cx="1398.25" cy="207.34" fill="#b8b8b8"></circle><circle r="5" cx="1434.82" cy="398.62" fill="#b8b8b8"></circle><circle r="5" cx="1460.83" cy="500.31" fill="#b8b8b8"></circle><circle r="5" cx="1560.51" cy="-71.77" fill="#b8b8b8"></circle><circle r="5" cx="1586.81" cy="67.08" fill="#b8b8b8"></circle><circle r="5" cx="1549.21" cy="255.89" fill="#b8b8b8"></circle><circle r="5" cx="1564.49" cy="553.16" fill="#b8b8b8"></circle><circle r="5" cx="1604.54" cy="682.17" fill="#b8b8b8"></circle></g><defs><mask id="SvgjsMask1010"><rect width="1440" height="560" fill="#ffffff"></rect></mask><radialGradient id="SvgjsRadialGradient1011"><stop stop-color="#ffffff" offset="0.1"></stop><stop stop-color="rgba(113, 113, 113, 1)" offset="0.2"></stop><stop stop-color="rgba(113, 113, 113, 0)" offset="1"></stop></radialGradient></defs></svg>